<svg xmlns="http://www.w3.org/2000/svg" xmlns:xlink="http://www.w3.org/1999/xlink" version="1.1" x="0px" y="0px" viewBox="0 0 56.352 112.5" enable-background="new 0 0 56.352 90" xml:space="preserve"><path d="M50.788,89.409c-0.272,0.158-0.57,0.233-0.865,0.233c-0.595,0-1.176-0.308-1.496-0.86L27.541,52.81v35.464  c0,0.954-0.773,1.727-1.727,1.727c-0.955,0-1.727-0.772-1.727-1.727V52.842L3.221,88.782c-0.322,0.553-0.9,0.86-1.497,0.86  c-0.293,0-0.592-0.075-0.864-0.233c-0.825-0.478-1.105-1.535-0.627-2.36L23.87,46.335c0.107-0.183,0.245-0.333,0.399-0.46  c0.281-0.572,0.864-0.97,1.545-0.97c0.667,0,1.239,0.382,1.527,0.937c0.17,0.132,0.32,0.297,0.436,0.494l23.637,40.713  C51.894,87.874,51.612,88.931,50.788,89.409z M37.073,38.712c0-0.713-0.583-1.295-1.295-1.295H15.764  c-0.712,0-1.295,0.582-1.295,1.295v4.318c0,0.713,0.583,1.295,1.295,1.295h20.014c0.712,0,1.295-0.583,1.295-1.295V38.712z   M36.65,26.611c-4.246,0-8.194-1.867-10.879-5.02c-2.685,3.152-6.634,5.02-10.88,5.02c-1.959,0-3.826-0.397-5.528-1.113v14.077  c0,0.713,0.583,1.295,1.295,1.295h1.811v-2.159c0-1.817,1.478-3.295,3.295-3.295h20.014c1.816,0,3.295,1.478,3.295,3.295v2.159  h1.811c0.713,0,1.295-0.583,1.295-1.295V25.498C40.476,26.214,38.609,26.611,36.65,26.611z M56.352,24.599  c0-0.712-0.566-1.159-1.259-0.991l-10.359,2.5c-0.692,0.167-1.26,0.886-1.26,1.6v4.307c0,0.712,0.567,1.432,1.26,1.599l10.359,2.5  c0.692,0.167,1.259-0.279,1.259-0.991V24.599z M6.772,28.028H5.858v-0.863c0-0.713-0.583-1.295-1.295-1.295H2.808  c-0.712,0-1.295,0.583-1.295,1.295v7.771c0,0.713,0.583,1.296,1.295,1.296h1.754c0.713,0,1.295-0.583,1.295-1.296v-0.863h0.915  c0.712,0,1.295-0.583,1.295-1.295v-3.455C8.068,28.61,7.485,28.028,6.772,28.028z M48.957,12.306c0,6.796-5.51,12.305-12.307,12.305  c-4.721,0-8.815-2.661-10.879-6.563c-2.064,3.901-6.159,6.563-10.88,6.563c-6.796,0-12.306-5.509-12.306-12.305  C2.585,5.51,8.095,0,14.891,0c4.721,0,8.816,2.662,10.88,6.563C27.834,2.662,31.929,0,36.65,0C43.447,0,48.957,5.51,48.957,12.306z   M18.583,12.306c0-2.039-1.653-3.692-3.691-3.692s-3.692,1.653-3.692,3.692c0,2.039,1.653,3.691,3.692,3.691  S18.583,14.345,18.583,12.306z M40.342,12.306c0-2.039-1.652-3.692-3.692-3.692c-2.038,0-3.691,1.653-3.691,3.692  c0,2.039,1.653,3.691,3.691,3.691C38.69,15.997,40.342,14.345,40.342,12.306z"/><text x="0" y="105" fill="#000000" font-size="5px" font-weight="bold" font-family="'Helvetica Neue', Helvetica, Arial-Unicode, Arial, Sans-serif">Created by Studio Fibonacci</text><text x="0" y="110" fill="#000000" font-size="5px" font-weight="bold" font-family="'Helvetica Neue', Helvetica, Arial-Unicode, Arial, Sans-serif">from the Noun Project</text></svg>